<svg xmlns="http://www.w3.org/2000/svg" fill="none" viewBox="0 0 191 163"><g clip-path="url(#a)"><path fill="#38B2AC" d="M50 5c0-2.76 2.79-5 6.24-5h65.52c3.45 0 6.24 2.24 6.24 5v60c0 2.76-2.79 5-6.24 5H56.24C52.79 70 50 67.76 50 65V5Z"/><path fill="#B2F5EA" d="M112 40c0-2.76 2.79-5 6.24-5h65.52c3.45 0 6.24 2.24 6.24 5v60c0 2.76-2.79 5-6.24 5h-65.52c-3.45 0-6.24-2.24-6.24-5V40Z"/><path fill="#E6FFFA" stroke="#285E61" d="M96.19 88.5h65.63c2.59 0 4.69 1.67 4.69 3.72v59.56c0 2.06-2.1 3.72-4.69 3.72H96.19c-2.59 0-4.69-1.67-4.69-3.72V92.22c0-2.06 2.1-3.72 4.69-3.72Z"/><path fill="#285E61" d="M6.24 59h65.52c3.45 0 6.24 2.24 6.24 5v60c0 2.76-2.79 5-6.24 5H6.24C2.79 129 0 126.76 0 124V64c0-2.76 2.79-5 6.24-5Z"/><path fill="#E6FFFA" d="M33.2119 89.7614c9.0099 5.2792 20.5538 13.3736 27.5224 19.0056l-4.153 4.927c-6.4758-5.913-18.5125-14.5708-27.2409-19.9908l3.8715-3.9418Zm32.1682-12.811c-.5631.9855-1.267 2.6044-1.619 3.7307-2.1117 7.1797-6.5463 16.5416-12.7406 24.1439-6.4055 7.884-15.5562 15.415-28.9303 20.343l-4.9977-4.435c13.0926-3.942 22.6656-11.403 29.0007-18.935 5.4201-6.4758 9.8546-15.4153 11.4736-21.9616H31.5225l2.2525-5.0681h22.384c1.9005 0 3.4491-.2112 4.5753-.6335l4.6458 2.8156ZM41.6587 66.7438c-1.1967 1.8302-2.4637 4.2234-3.1676 5.5609-4.153 7.7429-12.1071 18.3717-23.3695 26.1146l-4.6457-3.5898c12.0367-7.5318 19.2868-18.0903 22.5248-24.5662.7039-1.1966 1.8301-3.7306 2.2525-5.5608l6.4055 2.0413Z"/><path fill="#285E61" d="M97.1738 126.158c12.1782-3.238 22.8772-8.236 30.6912-13.093 7.391-4.646 14.43-10.699 19.288-16.6125l4.716 4.4345c-6.054 6.265-13.445 12.178-21.681 17.317-7.743 4.787-18.936 9.925-30.2689 13.445l-2.7453-5.491Zm29.5652-10.207 6.053-1.83v32.17c0 2.604.141 6.124.493 7.461h-6.969c.212-1.337.423-4.857.423-7.461v-30.34Z"/><path fill="#38B2AC" d="M155.907 84.8393c.221-.8291.387-1.9898.387-3.0952v-33.108c0-2.1003-.276-3.6479-.276-4.0901h5.085c-.055.4422-.277 2.0451-.277 4.1454v31.8367c5.141-2.3215 11.939-7.3512 16.14-13.5969l2.653 3.8137c-4.809 6.4669-12.436 12.1046-18.848 15.3104-.939.4421-1.492.9396-1.934 1.216l-2.93-2.432Zm-25.314-.2211c4.698-3.3163 7.959-8.2355 9.617-13.5969 1.658-5.085 1.658-16.0842 1.658-22.2746 0-1.6029-.11-2.8189-.387-3.9796h5.085c-.055.608-.276 2.3214-.276 3.9243 0 6.1352-.166 18.0187-1.658 23.5459-1.658 5.9141-5.196 11.2755-9.839 15.1445l-4.2-2.7636Z"/></g><defs><clipPath id="a"><path fill="#fff" d="M0 0h190.87v162.53H0z"/></clipPath></defs></svg>